<?xml version="1.0" encoding="utf-8"?>
<svg viewBox="0 0 4382 2488" xmlns="http://www.w3.org/2000/svg" overflow="hidden">
  <path d="M 0 1175.5 C 0 888.588 232.588 656 519.5 656 C 806.412 656 1039 888.588 1039 1175.5 C 1039 1462.41 806.412 1695 519.5 1695 C 232.588 1695 0 1462.41 0 1175.5 Z" fill="#FF0000" fill-rule="evenodd" style="stroke-width: 1;"/>
  <path d="M 65 1175 C 65 923.71 268.487 720 519.5 720 C 770.513 720 974 923.71 974 1175 C 974 1426.29 770.513 1630 519.5 1630 C 268.487 1630 65 1426.29 65 1175 Z" fill="#4EA72E" fill-rule="evenodd" style="stroke-width: 1;"/>
  <path d="M 1080 1132.12 L 1552.85 1132.13 L 1552.85 1145.88 L 1080 1145.87 L 1080 1132.12 Z M 1545.97 1118.38 L 1587.22 1139 L 1545.97 1159.63 L 1545.97 1118.38 Z" fill="#156082" style="stroke-width: 1;"/>
  <path d="M 1643.5 1094 C 1643.5 807.088 1876.31 574.5 2163.5 574.5 C 2450.69 574.5 2683.5 807.088 2683.5 1094 C 2683.5 1380.91 2450.69 1613.5 2163.5 1613.5 C 1876.31 1613.5 1643.5 1380.91 1643.5 1094 Z" stroke="#042433" stroke-width="6.875" stroke-miterlimit="8" fill="#FF0000" fill-rule="evenodd" style="stroke-width: 6.875;"/>
  <path d="M 1708 1093.5 C 1708 842.487 1911.71 639 2163 639 C 2414.29 639 2618 842.487 2618 1093.5 C 2618 1344.51 2414.29 1548 2163 1548 C 1911.71 1548 1708 1344.51 1708 1093.5 Z" fill="#156082" fill-rule="evenodd" style="stroke-width: 1;"/>
  <path d="M 1741 1093.5 C 1741 860.16 1929.94 671 2163 671 C 2396.06 671 2585 860.16 2585 1093.5 C 2585 1326.84 2396.06 1516 2163 1516 C 1929.94 1516 1741 1326.84 1741 1093.5 Z" fill="#4EA72E" fill-rule="evenodd" style="stroke-width: 1;"/>
  <path d="M 2753 1123.12 L 3225.85 1123.13 L 3225.85 1136.88 L 2753 1136.88 L 2753 1123.12 Z M 3218.97 1109.38 L 3260.22 1130 L 3218.97 1150.63 L 3218.97 1109.38 Z" fill="#156082" style="stroke-width: 1;"/>
  <path d="M 3287.5 1130 C 3287.5 843.088 3520.09 610.5 3807 610.5 C 4093.91 610.5 4326.5 843.088 4326.5 1130 C 4326.5 1416.91 4093.91 1649.5 3807 1649.5 C 3520.09 1649.5 3287.5 1416.91 3287.5 1130 Z" stroke="#042433" stroke-width="6.875" stroke-miterlimit="8" fill="#FF0000" fill-rule="evenodd" style="stroke-width: 6.875;"/>
  <path d="M 3352 1129.5 C 3352 878.487 3555.49 675 3806.5 675 C 4057.51 675 4261 878.487 4261 1129.5 C 4261 1380.51 4057.51 1584 3806.5 1584 C 3555.49 1584 3352 1380.51 3352 1129.5 Z" fill="#156082" fill-rule="evenodd" style="stroke-width: 1;"/>
  <path d="M 3514 1129.5 C 3514 967.957 3644.96 837 3806.5 837 C 3968.04 837 4099 967.957 4099 1129.5 C 4099 1291.04 3968.04 1422 3806.5 1422 C 3644.96 1422 3514 1291.04 3514 1129.5 Z" fill="#4EA72E" fill-rule="evenodd" style="stroke-width: 1;"/>
  <path d="M 1310.64 1019.23 L 1290.18 1072.94 L 1327.56 1072.94 L 1310.64 1019.23 Z M 1308.76 1007.36 L 1316.71 1007.36 L 1339.37 1078.1 L 1339.37 1081.54 L 1280.67 1081.54 L 1280.67 1078.1 L 1308.76 1007.36 Z" fill-rule="evenodd" style="stroke-width: 1;"/>
  <text fill="#000000" fill-opacity="0" font-family="Arial,Arial_MSFontService,sans-serif" font-size="74.1748" x="1280.67" y="1072.27" style="white-space: pre; stroke-width: 1; font-size: 74.2px;">∆</text>
  <path d="M 1364.24 1016.92 L 1371.66 1016.92 L 1368.7 1030.19 L 1385.03 1030.19 L 1383.85 1035.61 L 1367.52 1035.61 L 1362.74 1056.45 C 1361.81 1060.5 1361.22 1063.41 1360.97 1065.18 C 1360.72 1066.95 1360.59 1068.38 1360.59 1069.45 C 1360.59 1073.89 1362.43 1076.11 1366.12 1076.11 C 1367.7 1076.11 1369.37 1075.51 1371.14 1074.31 C 1372.92 1073.11 1375.02 1071.06 1377.46 1068.16 L 1380.57 1071.39 C 1377.46 1075.15 1374.46 1077.92 1371.57 1079.71 C 1368.69 1081.5 1365.68 1082.4 1362.52 1082.4 C 1355.04 1082.4 1351.3 1078.62 1351.3 1071.06 C 1351.3 1068.66 1351.6 1066.14 1352.21 1063.49 L 1358.55 1035.61 L 1349.53 1035.61 L 1350.33 1031.91 C 1352.44 1031.87 1354.05 1031.71 1355.14 1031.43 C 1356.23 1031.14 1357.14 1030.74 1357.88 1030.24 C 1358.61 1029.74 1359.28 1029.03 1359.89 1028.09 C 1360.5 1027.16 1361.09 1025.97 1361.66 1024.52 C 1362.24 1023.07 1363.1 1020.54 1364.24 1016.92 Z" fill-rule="evenodd" style="stroke-width: 1;"/>
  <text fill="#000000" fill-opacity="0" font-family="Arial,Arial_MSFontService,sans-serif" font-size="65.4736" x="1349.53" y="1074.21" style="white-space: pre; stroke-width: 1; font-size: 65.5px;">𝑡</text>
  <path d="M 2960.82 1019.23 L 2940.35 1072.94 L 2977.73 1072.94 L 2960.82 1019.23 Z M 2958.94 1007.36 L 2966.89 1007.36 L 2989.55 1078.1 L 2989.55 1081.54 L 2930.85 1081.54 L 2930.85 1078.1 L 2958.94 1007.36 Z" fill-rule="evenodd" style="stroke-width: 1;"/>
  <text fill="#000000" fill-opacity="0" font-family="Arial,Arial_MSFontService,sans-serif" font-size="74.1748" x="2930.85" y="1072.27" style="white-space: pre; stroke-width: 1; font-size: 74.2px;">∆</text>
  <path d="M 3014.42 1016.92 L 3021.83 1016.92 L 3018.88 1030.19 L 3035.21 1030.19 L 3034.02 1035.61 L 3017.7 1035.61 L 3012.92 1056.45 C 3011.98 1060.5 3011.39 1063.41 3011.14 1065.18 C 3010.89 1066.95 3010.77 1068.38 3010.77 1069.45 C 3010.77 1073.89 3012.61 1076.11 3016.3 1076.11 C 3017.87 1076.11 3019.55 1075.51 3021.32 1074.31 C 3023.09 1073.11 3025.2 1071.06 3027.63 1068.16 L 3030.75 1071.39 C 3027.63 1075.15 3024.63 1077.92 3021.75 1079.71 C 3018.87 1081.5 3015.85 1082.4 3012.7 1082.4 C 3005.22 1082.4 3001.48 1078.62 3001.48 1071.06 C 3001.48 1068.66 3001.78 1066.14 3002.39 1063.49 L 3008.73 1035.61 L 2999.7 1035.61 L 3000.51 1031.91 C 3002.62 1031.87 3004.22 1031.71 3005.32 1031.43 C 3006.41 1031.14 3007.32 1030.74 3008.05 1030.24 C 3008.79 1029.74 3009.46 1029.03 3010.07 1028.09 C 3010.68 1027.16 3011.27 1025.97 3011.84 1024.52 C 3012.41 1023.07 3013.27 1020.54 3014.42 1016.92 Z" fill-rule="evenodd" style="stroke-width: 1;"/>
  <text fill="#000000" fill-opacity="0" font-family="Arial,Arial_MSFontService,sans-serif" font-size="65.4736" x="2999.7" y="1074.21" style="white-space: pre; stroke-width: 1; font-size: 65.5px;">𝑡</text>
  <rect x="142" y="2262" width="418" height="42" fill="#156082" style="stroke-width: 1;"/>
  <rect x="142" y="2089" width="418" height="42" fill="#FF0000" style="stroke-width: 1;"/>
  <rect x="142" y="1916" width="418" height="43" fill="#4EA72E" style="stroke-width: 1;"/>
  <text font-family="Aptos,Aptos_MSFontService,sans-serif" font-weight="400" font-size="83" style="white-space: pre; stroke-width: 1; font-size: 83px;" x="628.818" y="1963">= </text>
  <text font-family="Aptos,Aptos_MSFontService,sans-serif" font-weight="400" font-size="83" style="white-space: pre; stroke-width: 1; font-size: 83px;" x="689.547" y="1963">solid</text>
  <text font-family="Aptos,Aptos_MSFontService,sans-serif" font-weight="400" font-size="83" style="white-space: pre; stroke-width: 1; font-size: 83px;" x="878.61" y="1963">API </text>
  <text font-family="Aptos,Aptos_MSFontService,sans-serif" font-weight="400" font-size="83" style="white-space: pre; stroke-width: 1; font-size: 83px;" x="1025.67" y="1963">core</text>
  <text font-family="Aptos,Aptos_MSFontService,sans-serif" font-weight="400" font-size="83" style="white-space: pre; stroke-width: 1; font-size: 83px;" x="628.818" y="2136">= </text>
  <text font-family="Aptos,Aptos_MSFontService,sans-serif" font-weight="400" font-size="83" style="white-space: pre; stroke-width: 1; font-size: 83px;" x="689.547" y="2136">sustained</text>
  <text font-family="Aptos,Aptos_MSFontService,sans-serif" font-weight="400" font-size="83" style="white-space: pre; stroke-width: 1; font-size: 83px;" x="1057.13" y="2136">release coating</text>
  <text font-family="Aptos,Aptos_MSFontService,sans-serif" font-weight="400" font-size="83" style="white-space: pre; stroke-width: 1; font-size: 83px;" x="628.818" y="2309">= </text>
  <text font-family="Aptos,Aptos_MSFontService,sans-serif" font-weight="400" font-size="83" style="white-space: pre; stroke-width: 1; font-size: 83px;" x="689.547" y="2309">aqueous</text>
  <text font-family="Aptos,Aptos_MSFontService,sans-serif" font-weight="400" font-size="83" style="white-space: pre; stroke-width: 1; font-size: 83px;" x="1026.26" y="2309">API solution</text>
  <text font-family="Aptos,Aptos_MSFontService,sans-serif" font-weight="700" font-size="83" style="white-space: pre; stroke-width: 1; font-size: 83px;" x="1926.26" y="1821">Implicit</text>
  <text font-family="Aptos,Aptos_MSFontService,sans-serif" font-weight="700" font-size="83" style="white-space: pre; stroke-width: 1; font-size: 83px;" x="2232.2" y="1821">assumptions</text>
  <text font-family="Aptos,Aptos_MSFontService,sans-serif" font-weight="700" font-size="83" style="white-space: pre; stroke-width: 1; font-size: 83px;" x="2720.89" y="1821">: </text>
  <text font-family="Arial,Arial_MSFontService,sans-serif" font-weight="400" font-size="83" style="white-space: pre; stroke-width: 1; font-size: 83px;" x="1926.26" y="1920">•</text>
  <text font-family="Aptos,Aptos_MSFontService,sans-serif" font-weight="400" font-size="83" style="white-space: pre; stroke-width: 1; font-size: 83px;" x="2029.38" y="1920">Area of </text>
  <text font-family="Aptos,Aptos_MSFontService,sans-serif" font-weight="400" font-size="83" style="white-space: pre; stroke-width: 1; font-size: 83px;" x="2321.24" y="1920">the</text>
  <text font-family="Aptos,Aptos_MSFontService,sans-serif" font-weight="400" font-size="83" style="white-space: pre; stroke-width: 1; font-size: 83px;" x="2452.58" y="1920">formulation</text>
  <text font-family="Aptos,Aptos_MSFontService,sans-serif" font-weight="400" font-size="83" style="white-space: pre; stroke-width: 1; font-size: 83px;" x="2882.35" y="1920">is constant</text>
  <text font-family="Arial,Arial_MSFontService,sans-serif" font-weight="400" font-size="83" style="white-space: pre; stroke-width: 1; font-size: 83px;" x="1926.26" y="2019">•</text>
  <text font-family="Aptos,Aptos_MSFontService,sans-serif" font-weight="400" font-size="83" style="white-space: pre; stroke-width: 1; font-size: 83px;" x="2029.38" y="2019">Concentration</text>
  <text font-family="Aptos,Aptos_MSFontService,sans-serif" font-weight="400" font-size="83" style="white-space: pre; stroke-width: 1; font-size: 83px;" x="2558.44" y="2019">outside</text>
  <text font-family="Aptos,Aptos_MSFontService,sans-serif" font-weight="400" font-size="83" style="white-space: pre; stroke-width: 1; font-size: 83px;" x="2842.28" y="2019">of </text>
  <text font-family="Aptos,Aptos_MSFontService,sans-serif" font-weight="400" font-size="83" style="white-space: pre; stroke-width: 1; font-size: 83px;" x="2928.79" y="2019">formulation</text>
  <text font-family="Aptos,Aptos_MSFontService,sans-serif" font-weight="400" font-size="83" style="white-space: pre; stroke-width: 1; font-size: 83px;" x="3359.56" y="2019">relatively</text>
  <text font-family="Aptos,Aptos_MSFontService,sans-serif" font-weight="400" font-size="83" style="white-space: pre; stroke-width: 1; font-size: 83px;" x="3695.49" y="2019">constant (= </text>
  <text font-family="Aptos,Aptos_MSFontService,sans-serif" font-weight="400" font-size="83" style="white-space: pre; stroke-width: 1; font-size: 83px;" x="4113.49" y="2019">sink</text>
  <text font-family="Aptos,Aptos_MSFontService,sans-serif" font-weight="400" font-size="83" style="white-space: pre; stroke-width: 1; font-size: 83px;" x="4258.44" y="2019">)</text>
  <text font-family="Arial,Arial_MSFontService,sans-serif" font-weight="400" font-size="83" style="white-space: pre; stroke-width: 1; font-size: 83px;" x="1926.26" y="2118">•</text>
  <text font-family="Aptos,Aptos_MSFontService,sans-serif" font-weight="400" font-size="83" style="white-space: pre; stroke-width: 1; font-size: 83px;" x="2029.38" y="2118">Aqueous</text>
  <text font-family="Aptos,Aptos_MSFontService,sans-serif" font-weight="400" font-size="83" style="white-space: pre; stroke-width: 1; font-size: 83px;" x="2378.67" y="2118">solution is </text>
  <text font-family="Aptos,Aptos_MSFontService,sans-serif" font-weight="400" font-size="83" style="white-space: pre; stroke-width: 1; font-size: 83px;" x="2769.81" y="2118">homogeneous</text>
  <text font-family="Aptos,Aptos_MSFontService,sans-serif" font-weight="400" font-size="83" style="white-space: pre; stroke-width: 1; font-size: 83px;" x="3313.72" y="2118">and</text>
  <text font-family="Aptos,Aptos_MSFontService,sans-serif" font-weight="400" font-size="83" style="white-space: pre; stroke-width: 1; font-size: 83px;" x="3466.12" y="2118">has constant </text>
  <text font-family="Aptos,Aptos_MSFontService,sans-serif" font-weight="400" font-size="83" style="white-space: pre; stroke-width: 1; font-size: 83px;" x="3952.42" y="2118">saturation</text>
  <text font-family="Aptos,Aptos_MSFontService,sans-serif" font-weight="400" font-size="83" style="white-space: pre; stroke-width: 1; font-size: 83px;" x="2029.38" y="2217">concentration</text>
  <text font-family="Arial,Arial_MSFontService,sans-serif" font-weight="400" font-size="83" style="white-space: pre; stroke-width: 1; font-size: 83px;" x="1926.26" y="2316">•</text>
  <text font-family="Aptos,Aptos_MSFontService,sans-serif" font-weight="400" font-size="83" style="white-space: pre; stroke-width: 1; font-size: 83px;" x="2029.38" y="2316">First time step (for water </text>
  <text font-family="Aptos,Aptos_MSFontService,sans-serif" font-weight="400" font-size="83" style="white-space: pre; stroke-width: 1; font-size: 83px;" x="2940.64" y="2316">diffusion</text>
  <text font-family="Aptos,Aptos_MSFontService,sans-serif" font-weight="400" font-size="83" style="white-space: pre; stroke-width: 1; font-size: 83px;" x="3246.73" y="2316">) </text>
  <text font-family="Aptos,Aptos_MSFontService,sans-serif" font-weight="400" font-size="83" style="white-space: pre; stroke-width: 1; font-size: 83px;" x="3286.41" y="2316">negligible</text>
  <text font-family="Arial,Arial_MSFontService,sans-serif" font-weight="400" font-size="83" style="white-space: pre; stroke-width: 1; font-size: 83px;" x="1926.26" y="2415">•</text>
  <text font-family="Aptos,Aptos_MSFontService,sans-serif" font-weight="400" font-size="83" style="white-space: pre; stroke-width: 1; font-size: 83px;" x="2029.38" y="2415">Coating </text>
  <text font-family="Aptos,Aptos_MSFontService,sans-serif" font-weight="400" font-size="83" style="white-space: pre; stroke-width: 1; font-size: 83px;" x="2323.7" y="2415">doesn’t</text>
  <text font-family="Aptos,Aptos_MSFontService,sans-serif" font-weight="400" font-size="83" style="white-space: pre; stroke-width: 1; font-size: 83px;" x="2607.82" y="2415">degrade</text>
  <text font-family="Aptos,Aptos_MSFontService,sans-serif" font-weight="400" font-size="83" style="white-space: pre; stroke-width: 1; font-size: 83px;" x="2912.99" y="2415">; </text>
  <text font-family="Aptos,Aptos_MSFontService,sans-serif" font-weight="400" font-size="83" style="white-space: pre; stroke-width: 1; font-size: 83px;" x="2949.09" y="2415">diffusion</text>
  <text font-family="Aptos,Aptos_MSFontService,sans-serif" font-weight="400" font-size="83" style="white-space: pre; stroke-width: 1; font-size: 83px;" x="3276.8" y="2415">coefficient</text>
  <text font-family="Aptos,Aptos_MSFontService,sans-serif" font-weight="400" font-size="83" style="white-space: pre; stroke-width: 1; font-size: 83px;" x="3673.26" y="2415">constant</text>
  <path d="M 1901.54 737.837 L 1732.25 522.414 L 1748.47 509.67 L 1917.76 725.093 L 1901.54 737.837 Z M 1722.41 543.266 L 1708.5 475.5 L 1771.06 505.035 L 1722.41 543.266 Z" fill="#4EA72E" style="stroke-width: 1;"/>
  <path d="M 3530.67 840.821 L 3398.56 591.88 L 3416.78 582.212 L 3548.89 831.152 L 3530.67 840.821 Z M 3385.18 610.658 L 3383.5 541.5 L 3439.83 581.653 L 3385.18 610.658 Z" fill="#4EA72E" style="stroke-width: 1;"/>
  <path d="M 570.812 412.5 L 570.813 680.043 L 550.188 680.043 L 550.187 412.5 L 570.812 412.5 Z M 591.438 669.73 L 560.5 731.605 L 529.563 669.73 L 591.438 669.73 Z" fill="#156082" style="stroke-width: 1;"/>
  <text font-family="Aptos,Aptos_MSFontService,sans-serif" font-weight="400" font-size="83" style="white-space: pre; stroke-width: 1; font-size: 83px;" x="334.691" y="147">Water </text>
  <text font-family="Aptos,Aptos_MSFontService,sans-serif" font-weight="400" font-size="83" style="white-space: pre; stroke-width: 1; font-size: 83px;" x="564.162" y="147">diffusion</text>
  <text font-family="Aptos,Aptos_MSFontService,sans-serif" font-weight="400" font-size="83" style="white-space: pre; stroke-width: 1; font-size: 83px;" x="334.691" y="246">through</text>
  <text font-family="Aptos,Aptos_MSFontService,sans-serif" font-weight="400" font-size="83" style="white-space: pre; stroke-width: 1; font-size: 83px;" x="626.328" y="246">coating </text>
  <text font-family="Aptos,Aptos_MSFontService,sans-serif" font-weight="400" font-size="83" style="white-space: pre; stroke-width: 1; font-size: 83px;" x="334.691" y="345">to</text>
  <text font-family="Aptos,Aptos_MSFontService,sans-serif" font-weight="400" font-size="83" style="white-space: pre; stroke-width: 1; font-size: 83px;" x="423.081" y="345">core</text>
  <path d="M 2342.35 675.91 L 2399.31 387.088 L 2379.07 383.098 L 2322.11 671.92 L 2342.35 675.91 Z M 2417.55 401.196 L 2399.17 334.505 L 2356.84 389.225 L 2417.55 401.196 Z" fill="#156082" style="transform-box: fill-box; transform-origin: 50% 50%; stroke-width: 1;" transform="matrix(-1, 0, 0, -1, 0.000061, 0.000049)"/>
  <path d="M 3991.21 723.314 L 4111.11 341.691 L 4091.44 335.509 L 3971.53 717.132 L 3991.21 723.314 Z M 4127.7 357.712 L 4116.73 289.409 L 4068.67 339.166 L 4127.7 357.712 Z" fill="#156082" style="transform-box: fill-box; transform-origin: 50% 50%; stroke-width: 1;" transform="matrix(-1, 0, 0, -1, -0.000436, 0.000006)"/>
  <text font-family="Aptos,Aptos_MSFontService,sans-serif" font-weight="400" font-size="83" style="white-space: pre; stroke-width: 1; font-size: 83px;" x="2183.79" y="102">Water </text>
  <text font-family="Aptos,Aptos_MSFontService,sans-serif" font-weight="400" font-size="83" style="white-space: pre; stroke-width: 1; font-size: 83px;" x="2416.26" y="102">diffusion</text>
  <text font-family="Aptos,Aptos_MSFontService,sans-serif" font-weight="400" font-size="83" style="white-space: pre; stroke-width: 1; font-size: 83px;" x="2183.79" y="201">through</text>
  <text font-family="Aptos,Aptos_MSFontService,sans-serif" font-weight="400" font-size="83" style="white-space: pre; stroke-width: 1; font-size: 83px;" x="2475.43" y="201">coating </text>
  <text font-family="Aptos,Aptos_MSFontService,sans-serif" font-weight="400" font-size="83" style="white-space: pre; stroke-width: 1; font-size: 83px;" x="2183.79" y="300">to</text>
  <text font-family="Aptos,Aptos_MSFontService,sans-serif" font-weight="400" font-size="83" style="white-space: pre; stroke-width: 1; font-size: 83px;" x="2272.18" y="300">core</text>
  <text font-family="Aptos,Aptos_MSFontService,sans-serif" font-weight="400" font-size="83" style="white-space: pre; stroke-width: 1; font-size: 83px;" x="3750.52" y="112">Water </text>
  <text font-family="Aptos,Aptos_MSFontService,sans-serif" font-weight="400" font-size="83" style="white-space: pre; stroke-width: 1; font-size: 83px;" x="3980" y="112">diffusion</text>
  <text font-family="Aptos,Aptos_MSFontService,sans-serif" font-weight="400" font-size="83" style="white-space: pre; stroke-width: 1; font-size: 83px;" x="3750.52" y="211">through</text>
  <text font-family="Aptos,Aptos_MSFontService,sans-serif" font-weight="400" font-size="83" style="white-space: pre; stroke-width: 1; font-size: 83px;" x="4042.16" y="211">coating </text>
  <text font-family="Aptos,Aptos_MSFontService,sans-serif" font-weight="400" font-size="83" style="white-space: pre; stroke-width: 1; font-size: 83px;" x="3750.52" y="310">to</text>
  <text font-family="Aptos,Aptos_MSFontService,sans-serif" font-weight="400" font-size="83" style="white-space: pre; stroke-width: 1; font-size: 83px;" x="3838.91" y="310">core</text>
  <text font-family="Aptos,Aptos_MSFontService,sans-serif" font-weight="400" font-size="83" style="white-space: pre; stroke-width: 1; font-size: 83px;" x="1412.42" y="134">API </text>
  <text font-family="Aptos,Aptos_MSFontService,sans-serif" font-weight="400" font-size="83" style="white-space: pre; stroke-width: 1; font-size: 83px;" x="1558.49" y="134">diffusion</text>
  <text font-family="Aptos,Aptos_MSFontService,sans-serif" font-weight="400" font-size="83" style="white-space: pre; stroke-width: 1; font-size: 83px;" x="1412.42" y="233">through</text>
  <text font-family="Aptos,Aptos_MSFontService,sans-serif" font-weight="400" font-size="83" style="white-space: pre; stroke-width: 1; font-size: 83px;" x="1704.06" y="233">coating </text>
  <text font-family="Aptos,Aptos_MSFontService,sans-serif" font-weight="400" font-size="83" style="white-space: pre; stroke-width: 1; font-size: 83px;" x="1412.42" y="332">from</text>
  <text font-family="Aptos,Aptos_MSFontService,sans-serif" font-weight="400" font-size="83" style="white-space: pre; stroke-width: 1; font-size: 83px;" x="1595.78" y="332">solution </text>
  <text font-family="Aptos,Aptos_MSFontService,sans-serif" font-weight="400" font-size="83" style="white-space: pre; stroke-width: 1; font-size: 83px;" x="1901.72" y="332">to</text>
  <text font-family="Aptos,Aptos_MSFontService,sans-serif" font-weight="400" font-size="83" style="white-space: pre; stroke-width: 1; font-size: 83px;" x="1412.42" y="431">GI </text>
  <text font-family="Aptos,Aptos_MSFontService,sans-serif" font-weight="400" font-size="83" style="white-space: pre; stroke-width: 1; font-size: 83px;" x="1508.67" y="431">tract</text>
  <text font-family="Aptos,Aptos_MSFontService,sans-serif" font-weight="400" font-size="83" style="white-space: pre; stroke-width: 1; font-size: 83px;" x="3030.49" y="117">API </text>
  <text font-family="Aptos,Aptos_MSFontService,sans-serif" font-weight="400" font-size="83" style="white-space: pre; stroke-width: 1; font-size: 83px;" x="3181.55" y="117">diffusion</text>
  <text font-family="Aptos,Aptos_MSFontService,sans-serif" font-weight="400" font-size="83" style="white-space: pre; stroke-width: 1; font-size: 83px;" x="3030.49" y="216">through</text>
  <text font-family="Aptos,Aptos_MSFontService,sans-serif" font-weight="400" font-size="83" style="white-space: pre; stroke-width: 1; font-size: 83px;" x="3322.13" y="216">coating </text>
  <text font-family="Aptos,Aptos_MSFontService,sans-serif" font-weight="400" font-size="83" style="white-space: pre; stroke-width: 1; font-size: 83px;" x="3030.49" y="315">from</text>
  <text font-family="Aptos,Aptos_MSFontService,sans-serif" font-weight="400" font-size="83" style="white-space: pre; stroke-width: 1; font-size: 83px;" x="3213.85" y="315">solution </text>
  <text font-family="Aptos,Aptos_MSFontService,sans-serif" font-weight="400" font-size="83" style="white-space: pre; stroke-width: 1; font-size: 83px;" x="3519.78" y="315">to</text>
  <text font-family="Aptos,Aptos_MSFontService,sans-serif" font-weight="400" font-size="83" style="white-space: pre; stroke-width: 1; font-size: 83px;" x="3030.49" y="414">GI </text>
  <text font-family="Aptos,Aptos_MSFontService,sans-serif" font-weight="400" font-size="83" style="white-space: pre; stroke-width: 1; font-size: 83px;" x="3126.74" y="414">tract</text>
</svg>